PathFileType	4	(X/Y/Z)	/Users/itak/Documents/Research/Walk-IL/dataset/trc/00266_00009.trc
DataRate	CameraRate	NumFrames	NumMarkers	Units	OrigDataRate	OrigDataStartFrame	OrigNumFrames
100.000000	100.000000	4	54	mm	100.000000	263	421
Frame#	Time	RPSI			LPSI			L3			STRN			T10			C7			CLAV			RBAK			LBAK			LSHO			LUPA			LAEL			LAOL			LWTS			LWPS			LFRA			LIFD			LHPS			LHTS			RSHO			RUPA			RAEL			RAOL			RWPS			RFRA			RIFD			RHTS			RHPS			RBHD			LFHD			RFHD			LBHD			LHIP			RHIP			RASI			LASI			LKNE			LTHI			LANK			LTIP			LTOE			LMT1			LMT5			LHEE			RKNE			RTHI			RANK			RTIP			RTOE			RMT1			RMT5			RWTS			RHEE			*53			
		X1	Y1	Z1	X2	Y2	Z2	X3	Y3	Z3	X4	Y4	Z4	X5	Y5	Z5	X6	Y6	Z6	X7	Y7	Z7	X8	Y8	Z8	X9	Y9	Z9	X10	Y10	Z10	X11	Y11	Z11	X12	Y12	Z12	X13	Y13	Z13	X14	Y14	Z14	X15	Y15	Z15	X16	Y16	Z16	X17	Y17	Z17	X18	Y18	Z18	X19	Y19	Z19	X20	Y20	Z20	X21	Y21	Z21	X22	Y22	Z22	X23	Y23	Z23	X24	Y24	Z24	X25	Y25	Z25	X26	Y26	Z26	X27	Y27	Z27	X28	Y28	Z28	X29	Y29	Z29	X30	Y30	Z30	X31	Y31	Z31	X32	Y32	Z32	X33	Y33	Z33	X34	Y34	Z34	X35	Y35	Z35	X36	Y36	Z36	X37	Y37	Z37	X38	Y38	Z38	X39	Y39	Z39	X40	Y40	Z40	X41	Y41	Z41	X42	Y42	Z42	X43	Y43	Z43	X44	Y44	Z44	X45	Y45	Z45	X46	Y46	Z46	X47	Y47	Z47	X48	Y48	Z48	X49	Y49	Z49	X50	Y50	Z50	X51	Y51	Z51	X52	Y52	Z52	X53	Y53	Z53	X54	Y54	Z54	

264	2.63	-116.0532684326172	1040.772338867188	23.82590293884277	-235.1567840576172	1041.62255859375	7.526400566101074	-188.3771057128906	1125.885009765625	19.74737167358398	-154.5463104248047	1305.612426757812	-233.4761505126953	-175.9647674560547	1251.699096679688	18.01156044006348	-159.6734313964844	1512.269287109375	-48.50934982299805	-148.0494232177734	1422.9404296875	-209.8809967041016	-100.9703826904297	1369.299926757812	34.4531135559082	-272.4259948730469	1481.673706054688	-38.66521453857422	-320.3171997070312	1484.548461914062	-132.8345031738281	-411.160400390625	1374.202392578125	-102.5253982543945	-458.6044921875	1168.836303710938	-97.35804748535156	-411.1564636230469	1151.532348632812	-25.14790916442871	-422.1358947753906	930.7510986328125	-187.3191833496094	-502.9317321777344	920.6718139648438	-160.4098663330078	-483.5548095703125	1062.793823242188	-116.8133316040039	-444.974609375	738.2014770507812	-190.2344055175781	-505.1177673339844	832.3705444335938	-178.0145568847656	-451.7467041015625	832.658447265625	-220.7656097412109	9.943151473999023	1461.300659179688	-89.11613464355469	73.09358215332031	1396.7978515625	-64.51515197753906	120.3208084106445	1117.589233398438	-42.45719909667969	28.1285285949707	1105.8203125	-21.10550689697266	160.7832794189453	897.3895263671875	-141.5145874023438	138.7573852539062	1051.418701171875	-71.61969757080078	103.8641662597656	728.6675415039062	-239.2635345458984	128.1775054931641	802.761962890625	-253.4208526611328	171.1414337158203	796.2044677734375	-194.8632965087891	-86.84169769287109	1675.803100585938	-117.3965148925781	-176.4819793701172	1680.362670898438	-326.2978210449219	-76.42739868164062	1675.26220703125	-323.1194458007812	-218.4594879150391	1679.173950195312	-166.9681091308594	-360.1185302734375	981.1971435546875	-112.3317184448242	3.103277444839478	1004.555908203125	-58.45843505859375	nan	nan	nan	-298.2675170898438	1027.251708984375	-204.1105499267578	-323.0116271972656	516.9548950195312	-276.9961547851562	-347.0120239257812	655.4440307617188	-233.1597137451172	-311.5958557128906	116.5343704223633	7.275303840637207	-324.7599487304688	330.590576171875	-138.3509826660156	-287.7017211914062	49.75221252441406	-195.7340850830078	-236.8853759765625	59.62699127197266	-135.5021514892578	-347.5364074707031	70.64404296875	-105.6174774169922	-252.9908447265625	143.7811737060547	54.14577484130859	-23.06623458862305	519.8433227539062	-156.2352905273438	20.29750633239746	785.8116455078125	-135.9933929443359	-58.97851943969727	29.95853042602539	-76.19021606445312	-38.31467056274414	397.845947265625	-166.0628814697266	-77.86514282226562	40.55933380126953	-289.6040649414062	-126.5501480102539	36.21761703491211	-240.8239440917969	-18.83227348327637	32.89786911010742	-180.5947113037109	105.1640701293945	916.8440551757812	-201.7696228027344	-122.9674911499023	29.82923889160156	-20.10480690002441	nan	nan	nan	
265	2.64	-113.5140151977539	1041.167846679688	19.43658256530762	-232.5825500488281	1042.019775390625	3.565115213394165	-185.4864044189453	1126.352783203125	15.61923789978027	-153.4655303955078	1305.618530273438	-238.2803802490234	-172.6236724853516	1251.994506835938	13.56742858886719	-156.75341796875	1512.484130859375	-53.64892578125	-146.6691436767578	1422.966064453125	-214.9022216796875	-97.04547882080078	1369.701171875	29.07085037231445	-269.3527221679688	1481.900268554688	-42.58296966552734	-318.19091796875	1484.695922851562	-136.2218475341797	-408.6587219238281	1374.322631835938	-104.8043212890625	-456.0194396972656	1168.986572265625	-98.63375091552734	-407.5396118164062	1151.707641601562	-27.16455841064453	-420.8738098144531	930.9189453125	-189.1807250976562	-501.2030639648438	920.7191162109375	-160.9151000976562	-481.3951721191406	1062.93505859375	-117.6448364257812	-443.5409851074219	738.4488525390625	-192.3087615966797	-503.4831237792969	832.4603271484375	-178.6274871826172	-451.0165710449219	832.976318359375	-222.3994750976562	12.44390678405762	1461.519775390625	-95.77877044677734	75.88813781738281	1397.09228515625	-71.80260467529297	123.8261260986328	1117.934692382812	-50.62086868286133	31.82536888122559	1105.8427734375	-28.3034782409668	163.7870330810547	898.1885375976562	-150.8010406494141	142.0948181152344	1051.89892578125	-80.15272521972656	106.5056991577148	729.7449340820312	-248.9400634765625	130.4413909912109	804.0067749023438	-262.8609008789062	173.9502410888672	797.27197265625	-204.7128448486328	-84.79708862304688	1676.062744140625	-123.3921585083008	-175.5218353271484	1679.914916992188	-331.8475646972656	-75.41828155517578	1674.880737304688	-329.1463928222656	-216.70556640625	1679.210693359375	-172.2964935302734	-358.2549438476562	981.8919067382812	-115.7734680175781	5.185515880584717	1004.628723144531	-63.49045562744141	nan	nan	nan	-296.704345703125	1027.431274414062	-207.7319183349609	-320.0681457519531	518.8396606445312	-284.7984008789062	-344.8473510742188	656.6817626953125	-239.0666198730469	-306.2131652832031	110.007682800293	-12.56758403778076	-320.6787414550781	328.4523620605469	-151.1533203125	-284.4337463378906	50.14527130126953	-218.0530700683594	-233.0174407958984	57.84177398681641	-158.0527191162109	-343.2895202636719	68.14006042480469	-126.5833740234375	-246.9027709960938	135.4590911865234	34.74166488647461	-22.16447448730469	519.400390625	-158.0699310302734	21.9504508972168	785.5677490234375	-139.8479614257812	-58.9904899597168	29.97855567932129	-76.17924499511719	-37.63434219360352	397.4682006835938	-167.2437286376953	-77.873779296875	40.54199981689453	-289.6057434082031	-126.5522689819336	36.21999359130859	-240.8352355957031	-18.82073783874512	32.88352203369141	-180.5858459472656	107.5744247436523	917.7530517578125	-210.4725646972656	-122.9099884033203	29.98148727416992	-20.09282875061035	nan	nan	nan	
266	2.65	-110.9987335205078	1041.51708984375	15.11229419708252	-230.0454254150391	1042.370971679688	-0.3854950070381165	-182.6782836914062	1126.763549804688	11.51235294342041	-152.4495086669922	1305.577758789062	-243.0474395751953	-169.4289093017578	1252.244262695312	9.096126556396484	-153.9600524902344	1512.65673828125	-58.76011657714844	-145.3588562011719	1422.9453125	-219.8784637451172	-93.30155181884766	1370.052856445312	23.74238395690918	-266.4366455078125	1482.093994140625	-46.55030822753906	-316.1647338867188	1484.80712890625	-139.6858825683594	-406.208251953125	1374.407104492188	-107.1954956054688	-453.4383850097656	1169.06884765625	-100.0836334228516	-404.0034790039062	1151.848388671875	-29.29835510253906	-419.3949890136719	931.0012817382812	-191.08349609375	-499.2833557128906	920.6785278320312	-161.5750122070312	-479.1855773925781	1063.010009765625	-118.6167144775391	-441.896728515625	738.57861328125	-194.2366943359375	-501.6636962890625	832.4439697265625	-179.3339385986328	-450.0084838867188	833.1417846679688	-223.9961700439453	14.8165225982666	1461.674072265625	-102.3448104858398	78.52908325195312	1397.311401367188	-78.97106170654297	127.1120223999023	1118.202392578125	-58.65348052978516	35.31929397583008	1105.795043945312	-35.44963836669922	166.6284332275391	898.8970336914062	-159.8848114013672	145.2437896728516	1052.300903320312	-88.53185272216797	109.0541000366211	730.708740234375	-258.4010620117188	132.6140441894531	805.1329345703125	-272.0907287597656	176.6206359863281	798.2362060546875	-214.3309326171875	-82.86235809326172	1676.267578125	-129.3131866455078	-174.6024322509766	1679.445556640625	-337.3352966308594	-74.45833587646484	1674.478515625	-335.0874633789062	-215.0303497314453	1679.19873046875	-177.5797729492188	-356.4314270019531	982.387939453125	-119.0342330932617	7.158095359802246	1004.656494140625	-68.53281402587891	nan	nan	nan	-295.2771606445312	1027.548583984375	-211.3153228759766	-317.208740234375	520.656494140625	-292.3262329101562	-342.7650756835938	657.8052978515625	-244.726806640625	-301.2328186035156	103.7973937988281	-32.48719787597656	-316.8562316894531	326.3861694335938	-163.9346008300781	-281.5138854980469	50.70210266113281	-240.1149444580078	-229.5282287597656	56.27896881103516	-180.3949737548828	-339.433837890625	65.92715454101562	-147.4868011474609	-241.3241119384766	127.4731369018555	15.19998073577881	-21.30644607543945	518.9419555664062	-160.0209350585938	23.56274604797363	785.3121948242188	-143.7184295654297	-59.01090240478516	30.00322151184082	-76.17624664306641	-36.99184036254883	397.07421875	-168.5229187011719	-77.883056640625	40.51904678344727	-289.6087951660156	-126.5468215942383	36.23129272460938	-240.8572082519531	-18.81797218322754	32.86114501953125	-180.5751037597656	109.8511428833008	918.54931640625	-219.0106964111328	-122.8951950073242	30.11196517944336	-20.07442283630371	nan	nan	nan	
267	2.66	-108.5079345703125	1041.817016601562	10.82734394073486	-227.5651397705078	1042.667236328125	-4.308831691741943	-179.9477081298828	1127.114990234375	7.407623767852783	-151.4836730957031	1305.492553710938	-247.7841186523438	-166.3835906982422	1252.459594726562	4.598537445068359	-151.2958374023438	1512.790283203125	-63.8472785949707	-144.1179046630859	1422.881103515625	-224.8169708251953	-89.76423645019531	1370.356079101562	18.46484756469727	-263.6834106445312	1482.257202148438	-50.57665634155273	-314.2391662597656	1484.882446289062	-143.2350158691406	-403.8247680664062	1374.458618164062	-109.7138900756836	-450.86669921875	1169.086669921875	-101.7145538330078	-400.5517578125	1151.961059570312	-31.55110359191895	-417.7239685058594	931.0051879882812	-193.0327606201172	-497.1765441894531	920.5535888671875	-162.3842315673828	-476.9239807128906	1063.023803710938	-119.7450714111328	-440.0457153320312	738.5882568359375	-196.0284118652344	-499.6738891601562	832.3246459960938	-180.1373748779297	-448.7325439453125	833.155029296875	-225.5654602050781	17.06270408630371	1461.768310546875	-108.8113861083984	81.01934051513672	1397.457763671875	-86.01728057861328	130.1802368164062	1118.395263671875	-66.54969787597656	38.61922073364258	1105.690673828125	-42.5458984375	169.3049621582031	899.5121459960938	-168.7621917724609	148.2065277099609	1052.627197265625	-96.75244140625	111.499870300293	731.5581665039062	-267.6316833496094	134.6887359619141	806.1350708007812	-281.1016540527344	179.1483917236328	799.0951538085938	-223.7037353515625	-81.03621673583984	1676.421752929688	-135.1647644042969	-173.7226867675781	1678.956298828125	-342.7664794921875	-73.55032348632812	1674.056884765625	-340.9496765136719	-213.4308166503906	1679.140258789062	-182.8236236572266	-354.6285095214844	982.7022094726562	-122.1897888183594	9.044499397277832	1004.643310546875	-73.56850433349609	nan	nan	nan	-293.9678344726562	1027.610229492188	-214.8650512695312	-314.4367370605469	522.3944091796875	-299.59521484375	-340.7529296875	658.8135986328125	-250.1631927490234	-296.6696472167969	97.90316009521484	-52.46261596679688	-313.2925415039062	324.3866271972656	-176.6953125	-278.7406616210938	51.42574310302734	-261.9013977050781	-226.2677001953125	54.9705696105957	-202.4690246582031	-335.8510131835938	63.95362854003906	-168.3364868164062	-236.3058776855469	119.8584976196289	-4.413332939147949	-20.48188591003418	518.4708251953125	-162.0887145996094	25.10503578186035	785.0330810546875	-147.6214752197266	-59.03904724121094	30.03584289550781	-76.18196868896484	-36.38906097412109	396.662841796875	-169.9040069580078	-77.89187622070312	40.49076080322266	-289.6132507324219	-126.5284042358398	36.25548553466797	-240.8921051025391	-18.83045387268066	32.82578277587891	-180.5616302490234	111.9954071044922	919.2333984375	-227.3812255859375	-122.9312210083008	30.21334075927734	-20.05111312866211	nan	nan	nan	
